PathFileType	4	(X/Y/Z)	C:/Users/beibeiliu/ov580/test_trc/User3\sequence.41_training_dense_left.trc
DataRate	CameraRate	NumFrames	NumMarkers	Units	OrigDataRate	OrigDataStartFrame	OrigNumFrames
120	120	15	19	mm	120	51	75
Frame#	Time	ThumbCMC			ThumbMCP			ThumbIP			ThumbTip			IndexMCP			IndexPIP			IndexTip			MiddleMCP			MiddlePIP			MiddleTip			RingMCP			RingPIP			RingTip			PinkyMCP			PinkyPIP			PinkyTip			BackHand1			BackHand2			BackHand3	
		X0	Y0	Z0	X1	Y1	Z1	X2	Y2	Z2	X3	Y3	Z3	X4	Y4	Z4	X5	Y5	Z5	X6	Y6	Z6	X7	Y7	Z7	X8	Y8	Z8	X9	Y9	Z9	X10	Y10	Z10	X11	Y11	Z11	X12	Y12	Z12	X13	Y13	Z13	X14	Y14	Z14	X15	Y15	Z15	X16	Y16	Z16	X17	Y17	Z17	X18	Y18	Z18	
50	0.416667	-173.833	9.76635	13.1074	-160.501	37.9298	-9.11956	-144.723	55.0352	-27.4283	-123.023	62.0956	-43.1117	-170.124	-3.51222	-62.6774	-161.588	14.0005	-90.0651	-155.457	37.1985	-99.7844	-148.255	-23.3509	-68.778	-142.743	-13.2613	-98.3692	-131.161	6.74108	-120.358	-129.097	-27.931	-58.5002	-116.248	-17.1793	-86.9039	-105.042	7.26678	-102.426	-103.662	-24.1518	-44.6247	-90.1453	-13.7782	-59.5905	-82.5085	5.12172	-73.1625	-138.087	-43.6771	-8.94591	-139.573	-48.7483	17.3166	-168.23	-33.0176	0.908706	
51	0.425	-178.839	-1.64702	16.1262	-171.682	29.6312	-6.14668	-153.882	43.7967	-27.107	-130.303	49.8247	-44.128	-172.523	-15.6728	-62.3731	-171.165	3.84726	-86.1357	-163.847	30.3747	-97.3586	-150.295	-30.4671	-65.7464	-149.666	-20.7135	-93.4917	-137.019	6.10668	-120.305	-132.66	-30.697	-57.7065	-124.71	-17.1992	-84.9813	-113.671	7.17978	-95.8814	-105.345	-24.7377	-40.4201	-98.6481	-6.22863	-61.3413	-98.0431	16.4372	-69.0515	-136.522	-47.1905	-8.12631	-133.652	-52.4042	21.2634	-169.143	-43.1517	3.24127	
52	0.433333	-179.064	-13.5796	16.3084	-174.656	15.1723	-4.53636	-156.677	32.3073	-34.1111	-133.151	33.9239	-43.142	-174.52	-26.3854	-57.7165	-176.245	-7.21438	-82.0455	-172.702	21.335	-91.9563	-151.101	-38.6059	-65.9151	-153.439	-27.9926	-91.1892	-150.65	0.992125	-114.102	-131.026	-34.0228	-52.7299	-130.291	-17.8789	-80.301	-124.921	12.9143	-87.6765	-111.874	-22.5206	-39.9421	-110.746	-0.94613	-57.8542	-111.26	26.6105	-62.3195	-136.365	-50.1017	-5.83809	-132.174	-57.6344	26.7794	-169.026	-51.2955	5.37407	
53	0.441667	-185.77	-16.4056	21.9472	-179.884	12.0686	-7.52331	-163.342	28.2364	-31.5191	-140.152	28.9465	-39.1894	-180.832	-31.1096	-53.8276	-185.049	-10.8442	-79.2439	-186.012	14.0044	-87.9654	-160.22	-41.1301	-62.4198	-158.236	-28.9064	-91.3354	-156.3	-1.09778	-110.741	-141.633	-34.146	-52.977	-135.929	-16.9419	-76.116	-137.825	12.644	-81.9297	-121.851	-21.7888	-38.1587	-122.54	0.63384	-54.8834	-125.909	26.684	-56.2127	-136.056	-53.7188	0.43964	-135.827	-57.4464	27.1782	-172.636	-54.5757	8.59725	
54	0.45	-193.301	-17.3615	19.9308	-189.985	10.3271	-1.7716	-176.239	28.2869	-27.3073	-153.162	31.0047	-36.7423	-189.338	-31.6827	-52.5208	-195.223	-10.4375	-79.3112	-196.629	12.9571	-86.5112	-163.223	-41.7557	-58.5101	-167.357	-28.4488	-89.4409	-168.002	-0.61402	-109.794	-144.691	-33.1834	-50.1391	-142.405	-13.5785	-76.1432	-148.047	14.8074	-78.5751	-128.959	-18.433	-39.6442	-130.067	2.66096	-53.6794	-137.42	28.3167	-52.2348	-142.919	-52.3947	-0.967751	-139.493	-54.1521	29.5893	-177.874	-52.8962	12.346	
55	0.458333	-201.643	-17.9116	22.9541	-204.982	12.0909	-0.486674	-193.785	29.1459	-21.9025	-174.283	40.1236	-38.2167	-199.513	-33.0248	-49.684	-206.265	-13.7394	-76.3295	-208.207	12.2124	-87.0494	-177.177	-42.2055	-57.6974	-180.302	-30.7105	-89.079	-177.451	-5.29212	-107.837	-158.615	-35.6611	-48.2359	-154.191	-15.9628	-78.6192	-157.294	11.731	-82.4157	-135.776	-20.6763	-38.7486	-137.578	-2.14375	-54.6228	-141.937	29.7311	-55.8418	-155.881	-51.1754	-0.148367	-152.637	-55.4756	26.9108	-185.892	-55.2944	15.458	
56	0.466667	-214.895	-16.7234	21.9983	-221.574	13.3066	3.33932	-216.703	34.8107	-19.0768	-199.625	46.6635	-34.0978	-213.134	-32.1859	-51.8069	-219.728	-14.413	-75.823	-220.904	9.68065	-87.4606	-188.396	-42.9546	-60.0633	-188.991	-30.1243	-89.8989	-186.611	-2.93119	-110.504	-167.672	-37.7732	-48.7557	-163.012	-22.4443	-79.9651	-166.48	5.90745	-90.1013	-145.619	-25.6405	-36.2507	-140.397	-9.87172	-56.1124	-140.115	19.2109	-65.4161	-162.789	-52.8044	-5.09649	-159.28	-57.5247	28.6154	-198.078	-51.5112	11.8078	
57	0.475	-215.287	-16.1585	24.1131	-220.827	12.4303	4.39369	-211.496	32.9473	-20.4507	-195.928	42.6624	-34.0457	-215.095	-29.8912	-55.4894	-215.884	-13.4511	-79.4519	-215.178	12.5895	-90.9015	-189.85	-44.7218	-61.0426	-189.961	-34.7275	-87.6888	-185.412	-4.66172	-112.733	-170.644	-42.4714	-54.7412	-166.308	-31.5867	-81.4887	-162.641	-7.73615	-94.7065	-144.041	-31.8124	-37.6676	-133.602	-16.1869	-58.155	-128.966	3.77772	-70.7034	-167.68	-54.422	-2.56307	-169.735	-59.7621	26.4131	-201.048	-52.7002	12.8675	
58	0.483333	-197.868	-7.33062	19.3648	-192.055	19.2028	-3.64542	-180.2	36.3877	-25.1183	-156.899	40.4271	-40.978	-189.016	-27.0237	-56.6832	-186.803	-11.3499	-82.9646	-178.861	17.638	-96.5917	-166.435	-42.4851	-59.9121	-163.118	-30.7599	-93.4285	-155.317	-5.96501	-115.777	-146.956	-43.007	-50.8547	-138.263	-32.5841	-80.3116	-132.239	-10.4437	-94.2803	-121.02	-34.3563	-36.3399	-111.882	-20.9645	-54.8105	-103.59	3.30922	-67.5924	-155.141	-53.2494	-5.1575	-153.328	-57.4564	27.8253	-184.175	-47.9805	8.38135	
59	0.491667	-166.389	1.47932	13.5171	-150.226	24.3354	-11.6714	-130.297	35.168	-32.1623	-104.31	30.8434	-40.2537	-151.643	-21.6826	-64.3249	-146.001	-4.31113	-89.1195	-133.854	15.3226	-97.8	-128.41	-41.3833	-62.0878	-123.284	-33.737	-89.7585	-106.86	-10.4426	-111.57	-110.519	-40.472	-50.8731	-99.9199	-28.0912	-77.233	-87.1105	-0.381951	-87.1651	-89.8188	-30.1957	-29.2927	-75.7249	-11.4003	-49.4917	-73.0099	10.4259	-54.0185	-122.202	-50.1528	2.41627	-127.947	-52.8913	29.3649	-160.123	-40.2189	5.45405	
60	0.5	-148.53	6.96257	9.0688	-125.075	25.8612	-13.7926	-97.0896	32.9345	-34.781	-75.1561	24.6607	-36.4614	-128.173	-19.3373	-59.9329	-117.194	-5.79378	-87.0906	-101.481	19.9981	-99.1982	-110.865	-38.5012	-60.2261	-97.3439	-34.0159	-85.8766	-80.3358	-9.29682	-111.775	-89.9883	-38.2819	-46.1353	-72.2007	-26.1032	-69.3371	-63.8043	1.64787	-75.4447	-72.9181	-27.2492	-26.1802	-56.4272	-10.2309	-39.9794	-50.1407	14.768	-44.6241	-110.067	-45.7886	-0.854054	-120.183	-46.6842	31.5158	-140.589	-35.2158	4.83578	
61	0.508333	-141.915	14.7055	5.79289	-115.134	32.5523	-14.963	-88.1733	36.1557	-31.8581	-62.2671	25.879	-38.4435	-122.484	-14.3724	-61.8326	-110.033	-0.508507	-89.1047	-96.8317	22.7951	-101.227	-107.509	-34.498	-63.062	-91.6412	-29.6857	-89.787	-73.0494	-8.91851	-110.692	-86.7598	-37.2016	-44.9454	-70.4382	-25.8755	-69.9103	-53.3376	2.08729	-71.4835	-67.8947	-30.7812	-27.0264	-53.2543	-13.452	-41.5499	-47.3135	11.1152	-43.6224	-109.679	-43.2998	-2.08177	-120.82	-42.7939	26.526	-146.746	-27.7196	2.01765	
62	0.516667	-133.88	27.644	10.0219	-103.116	38.1894	-13.145	-80.1391	38.3925	-27.6926	-57.4493	25.8318	-40.5386	-126.041	1.07422	-65.1538	-113.23	10.7962	-88.5366	-88.483	25.504	-101.624	-118.56	-22.8464	-63.6236	-103.983	-18.595	-94.0459	-78.7272	-9.2555	-112.285	-100.637	-34.2656	-51.057	-85.2475	-28.1193	-74.6373	-57.3076	-8.50102	-79.6116	-84.1064	-37.7644	-30.7032	-63.8841	-29.1242	-47.3293	-44.9325	-8.69153	-51.4855	-127.279	-35.9531	-0.875677	-134.574	-33.6099	24.5706	-149.592	-10.9065	1.53139	
63	0.525	-113.147	43.4718	17.0729	-83.5903	48.3194	-2.43365	-61.4753	45.2447	-21.1089	-43.7797	33.122	-37.0221	-119.697	28.8667	-59.5342	-103.155	33.6545	-85.7882	-79.819	37.0394	-101.145	-124.618	2.92901	-64.9646	-112.915	4.88001	-91.2714	-86.4639	6.86188	-114.861	-118.862	-15.3995	-50.649	-103.919	-16.5689	-79.184	-77.1917	-18.571	-91.8352	-109.807	-31.1326	-33.0972	-91.9812	-38.8965	-54.1942	-67.5683	-31.2363	-65.8752	-139.051	-11.1623	-3.63288	-146.989	-15.9667	25.6411	-146.386	20.4822	2.84036	
64	0.533333	-95.0285	48.4261	22.6426	-65.3671	48.7695	9.01889	-41.0508	45.406	-15.9813	-29.9725	32.8601	-30.1295	-105.044	47.5992	-55.6992	-88.9983	48.9485	-81.311	-71.3727	46.2754	-96.5102	-121.707	31.1084	-61.035	-110.627	26.2373	-90.7245	-91.0292	17.7328	-115.754	-129.422	6.52714	-53.1962	-120.217	3.03758	-78.825	-100.132	-6.47799	-99.7209	-128.564	-11.6451	-36.6654	-122.283	-23.0265	-59.9818	-106.43	-34.7883	-75.6055	-143.684	13.9301	-2.28486	-149.165	13.1629	26.1883	-130.076	44.0591	10.2245	
